<?xml version="1.0" standalone="no"?>
<!DOCTYPE svg PUBLIC "-//W3C//DTD SVG 20010904//EN"
 "http://www.w3.org/TR/2001/REC-SVG-20010904/DTD/svg10.dtd">
<svg version="1.0" xmlns="http://www.w3.org/2000/svg"
 width="317.000000pt" height="317.000000pt" viewBox="0 0 317.000000 317.000000"
 preserveAspectRatio="xMidYMid meet">
<metadata>
Created by potrace 1.11, written by Peter Selinger 2001-2013
</metadata>
<g transform="translate(0.000000,317.000000) scale(0.100000,-0.100000)"
fill="#000000" stroke="none">
<path d="M178 2993 c-6 -13 -3 -2812 3 -2817 3 -3 63 -5 135 -5 71 0 143 -1
159 -1 17 -1 37 -2 45 -1 8 0 67 0 130 0 63 0 122 0 130 0 8 0 101 0 205 0
105 -1 195 -1 200 0 12 0 101 0 130 0 33 0 409 0 425 0 8 0 65 0 125 0 61 -1
115 -1 120 0 6 0 33 0 60 0 60 0 81 1 98 2 19 1 218 0 252 -2 17 0 36 -1 43 0
6 1 18 1 25 2 19 1 218 0 252 -2 17 0 37 -1 45 0 63 3 183 1 187 -2 2 -3 16
-2 31 2 l27 7 1 1412 c0 777 -3 1412 -8 1412 -4 0 -323 -315 -708 -700 l-700
-699 -700 699 c-385 385 -702 700 -704 700 -3 0 -6 -3 -8 -7z m2608 -2598 c-2
-7 -408 -10 -1192 -9 -654 1 -1192 2 -1195 3 -8 1 -8 2091 0 2091 3 0 273
-267 598 -592 l593 -593 598 598 597 597 3 -1042 c1 -574 0 -1047 -2 -1053z"/>
</g>
</svg>
